# xmcd
#
# Track frame offsets:
#	150
#	54000
#	67916
#	83524
#	91858
#	124740
#	140656
#	176934
#	212395
#	248091
#	261260
#	308768
#	324312
#
# Disc length: 4663 seconds
#
# Revision: 1
# Processed by: cddbd v1.5.2PL0 Copyright (c) Steve Scherf et al.
# Submitted via: audiograbber 1.83.01
#
DISCID=a612350d
DTITLE=Grateful Dead - 78-01-18 Stockton Civic Auditorium, Stockton CA
DYEAR=1900
DGENRE=
TTITLE0=Mississippi Half-Step
TTITLE1=Mama Tried
TTITLE2=Me and My Uncle
TTITLE3=Tuning
TTITLE4=Peggy-O
TTITLE5=Tuning
TTITLE6=Jack Straw
TTITLE7=Friend Of The Devil
TTITLE8=It's All Over Now
TTITLE9=Tuning
TTITLE10=Row Jimmy
TTITLE11=Lazy Lightning
TTITLE12=Supplication
EXTD=
EXTT0=
EXTT1=
EXTT2=
EXTT3=
EXTT4=
EXTT5=
EXTT6=
EXTT7=
EXTT8=
EXTT9=
EXTT10=
EXTT11=
EXTT12=
PLAYORDER=
